<?xml version="1.0" encoding="utf-8" standalone="no"?>
<!DOCTYPE svg PUBLIC "-//W3C//DTD SVG 1.1//EN"
  "http://www.w3.org/Graphics/SVG/1.1/DTD/svg11.dtd">
<svg xmlns:xlink="http://www.w3.org/1999/xlink" width="576pt" height="331.2pt" viewBox="0 0 576 331.2" xmlns="http://www.w3.org/2000/svg" version="1.1">
 <metadata>
  <rdf:RDF xmlns:dc="http://purl.org/dc/elements/1.1/" xmlns:cc="http://creativecommons.org/ns#" xmlns:rdf="http://www.w3.org/1999/02/22-rdf-syntax-ns#">
   <cc:Work>
    <dc:type rdf:resource="http://purl.org/dc/dcmitype/StillImage"/>
    <dc:format>image/svg+xml</dc:format>
    <dc:creator>
     <cc:Agent>
      <dc:title>Matplotlib v3.10.9, https://matplotlib.org/</dc:title>
     </cc:Agent>
    </dc:creator>
   </cc:Work>
  </rdf:RDF>
 </metadata>
 <defs>
  <style type="text/css">*{stroke-linejoin: round; stroke-linecap: butt}</style>
 </defs>
 <g id="figure_1">
  <g id="patch_1">
   <path d="M 0 331.2 
L 576 331.2 
L 576 0 
L 0 0 
z
" style="fill: #ffffff"/>
  </g>
  <g id="axes_1">
   <g id="patch_2">
    <path d="M 41.965083 158.7888 
L 106.482274 158.7888 
Q 114.683611 158.7888 114.683611 154.1448 
L 114.683611 81.0792 
Q 114.683611 76.4352 106.482274 76.4352 
L 41.965083 76.4352 
Q 33.763746 76.4352 33.763746 81.0792 
L 33.763746 154.1448 
Q 33.763746 158.7888 41.965083 158.7888 
z
" clip-path="url(#p44bf4ccfc6)" style="fill: #dbeafe; stroke: #374151; stroke-linejoin: miter"/>
   </g>
   <g id="patch_3">
    <path d="M 121.244682 158.7888 
L 185.761872 158.7888 
Q 193.96321 158.7888 193.96321 154.1448 
L 193.96321 81.0792 
Q 193.96321 76.4352 185.761872 76.4352 
L 121.244682 76.4352 
Q 113.043344 76.4352 113.043344 81.0792 
L 113.043344 154.1448 
Q 113.043344 158.7888 121.244682 158.7888 
z
" clip-path="url(#p44bf4ccfc6)" style="fill: #e0f2fe; stroke: #374151; stroke-linejoin: miter"/>
   </g>
   <g id="patch_4">
    <path d="M 200.52428 158.7888 
L 265.04147 158.7888 
Q 273.242808 158.7888 273.242808 154.1448 
L 273.242808 81.0792 
Q 273.242808 76.4352 265.04147 76.4352 
L 200.52428 76.4352 
Q 192.322942 76.4352 192.322942 81.0792 
L 192.322942 154.1448 
Q 192.322942 158.7888 200.52428 158.7888 
z
" clip-path="url(#p44bf4ccfc6)" style="fill: #dcfce7; stroke: #374151; stroke-linejoin: miter"/>
   </g>
   <g id="patch_5">
    <path d="M 279.803878 158.7888 
L 344.321068 158.7888 
Q 352.522406 158.7888 352.522406 154.1448 
L 352.522406 81.0792 
Q 352.522406 76.4352 344.321068 76.4352 
L 279.803878 76.4352 
Q 271.60254 76.4352 271.60254 81.0792 
L 271.60254 154.1448 
Q 271.60254 158.7888 279.803878 158.7888 
z
" clip-path="url(#p44bf4ccfc6)" style="fill: #fef3c7; stroke: #374151; stroke-linejoin: miter"/>
   </g>
   <g id="patch_6">
    <path d="M 359.083476 158.7888 
L 423.600667 158.7888 
Q 431.802004 158.7888 431.802004 154.1448 
L 431.802004 81.0792 
Q 431.802004 76.4352 423.600667 76.4352 
L 359.083476 76.4352 
Q 350.882139 76.4352 350.882139 81.0792 
L 350.882139 154.1448 
Q 350.882139 158.7888 359.083476 158.7888 
z
" clip-path="url(#p44bf4ccfc6)" style="fill: #fee2e2; stroke: #374151; stroke-linejoin: miter"/>
   </g>
   <g id="patch_7">
    <path d="M 438.363075 158.7888 
L 502.880265 158.7888 
Q 511.081603 158.7888 511.081603 154.1448 
L 511.081603 81.0792 
Q 511.081603 76.4352 502.880265 76.4352 
L 438.363075 76.4352 
Q 430.161737 76.4352 430.161737 81.0792 
L 430.161737 154.1448 
Q 430.161737 158.7888 438.363075 158.7888 
z
" clip-path="url(#p44bf4ccfc6)" style="fill: #f3e8ff; stroke: #374151; stroke-linejoin: miter"/>
   </g>
   <g id="patch_8">
    <path d="M 517.642673 158.7888 
L 582.159863 158.7888 
Q 590.361201 158.7888 590.361201 154.1448 
L 590.361201 81.0792 
Q 590.361201 76.4352 582.159863 76.4352 
L 517.642673 76.4352 
Q 509.441335 76.4352 509.441335 81.0792 
L 509.441335 154.1448 
Q 509.441335 158.7888 517.642673 158.7888 
z
" clip-path="url(#p44bf4ccfc6)" style="fill: #e5e7eb; stroke: #374151; stroke-linejoin: miter"/>
   </g>
   <g id="text_1">
    <!-- 3+2 -->
    <g style="fill: #111827" transform="translate(63.671335 114.772469) scale(0.1 -0.1)">
     <defs>
      <path id="DejaVuSans-33" d="M 2597 2516 
Q 3050 2419 3304 2112 
Q 3559 1806 3559 1356 
Q 3559 666 3084 287 
Q 2609 -91 1734 -91 
Q 1441 -91 1130 -33 
Q 819 25 488 141 
L 488 750 
Q 750 597 1062 519 
Q 1375 441 1716 441 
Q 2309 441 2620 675 
Q 2931 909 2931 1356 
Q 2931 1769 2642 2001 
Q 2353 2234 1838 2234 
L 1294 2234 
L 1294 2753 
L 1863 2753 
Q 2328 2753 2575 2939 
Q 2822 3125 2822 3475 
Q 2822 3834 2567 4026 
Q 2313 4219 1838 4219 
Q 1578 4219 1281 4162 
Q 984 4106 628 3988 
L 628 4550 
Q 988 4650 1302 4700 
Q 1616 4750 1894 4750 
Q 2613 4750 3031 4423 
Q 3450 4097 3450 3541 
Q 3450 3153 3228 2886 
Q 3006 2619 2597 2516 
z
" transform="scale(0.015625)"/>
      <path id="DejaVuSans-2b" d="M 2944 4013 
L 2944 2272 
L 4684 2272 
L 4684 1741 
L 2944 1741 
L 2944 0 
L 2419 0 
L 2419 1741 
L 678 1741 
L 678 2272 
L 2419 2272 
L 2419 4013 
L 2944 4013 
z
" transform="scale(0.015625)"/>
      <path id="DejaVuSans-32" d="M 1228 531 
L 3431 531 
L 3431 0 
L 469 0 
L 469 531 
Q 828 903 1448 1529 
Q 2069 2156 2228 2338 
Q 2531 2678 2651 2914 
Q 2772 3150 2772 3378 
Q 2772 3750 2511 3984 
Q 2250 4219 1831 4219 
Q 1534 4219 1204 4116 
Q 875 4013 500 3803 
L 500 4441 
Q 881 4594 1212 4672 
Q 1544 4750 1819 4750 
Q 2544 4750 2975 4387 
Q 3406 4025 3406 3419 
Q 3406 3131 3298 2873 
Q 3191 2616 2906 2266 
Q 2828 2175 2409 1742 
Q 1991 1309 1228 531 
z
" transform="scale(0.015625)"/>
     </defs>
     <use xlink:href="#DejaVuSans-33"/>
     <use xlink:href="#DejaVuSans-2b" transform="translate(63.623047 0)"/>
     <use xlink:href="#DejaVuSans-32" transform="translate(147.412109 0)"/>
    </g>
    <!-- stabilizer -->
    <g style="fill: #111827" transform="translate(51.497116 125.970281) scale(0.1 -0.1)">
     <defs>
      <path id="DejaVuSans-73" d="M 2834 3397 
L 2834 2853 
Q 2591 2978 2328 3040 
Q 2066 3103 1784 3103 
Q 1356 3103 1142 2972 
Q 928 2841 928 2578 
Q 928 2378 1081 2264 
Q 1234 2150 1697 2047 
L 1894 2003 
Q 2506 1872 2764 1633 
Q 3022 1394 3022 966 
Q 3022 478 2636 193 
Q 2250 -91 1575 -91 
Q 1294 -91 989 -36 
Q 684 19 347 128 
L 347 722 
Q 666 556 975 473 
Q 1284 391 1588 391 
Q 1994 391 2212 530 
Q 2431 669 2431 922 
Q 2431 1156 2273 1281 
Q 2116 1406 1581 1522 
L 1381 1569 
Q 847 1681 609 1914 
Q 372 2147 372 2553 
Q 372 3047 722 3315 
Q 1072 3584 1716 3584 
Q 2034 3584 2315 3537 
Q 2597 3491 2834 3397 
z
" transform="scale(0.015625)"/>
      <path id="DejaVuSans-74" d="M 1172 4494 
L 1172 3500 
L 2356 3500 
L 2356 3053 
L 1172 3053 
L 1172 1153 
Q 1172 725 1289 603 
Q 1406 481 1766 481 
L 2356 481 
L 2356 0 
L 1766 0 
Q 1100 0 847 248 
Q 594 497 594 1153 
L 594 3053 
L 172 3053 
L 172 3500 
L 594 3500 
L 594 4494 
L 1172 4494 
z
" transform="scale(0.015625)"/>
      <path id="DejaVuSans-61" d="M 2194 1759 
Q 1497 1759 1228 1600 
Q 959 1441 959 1056 
Q 959 750 1161 570 
Q 1363 391 1709 391 
Q 2188 391 2477 730 
Q 2766 1069 2766 1631 
L 2766 1759 
L 2194 1759 
z
M 3341 1997 
L 3341 0 
L 2766 0 
L 2766 531 
Q 2569 213 2275 61 
Q 1981 -91 1556 -91 
Q 1019 -91 701 211 
Q 384 513 384 1019 
Q 384 1609 779 1909 
Q 1175 2209 1959 2209 
L 2766 2209 
L 2766 2266 
Q 2766 2663 2505 2880 
Q 2244 3097 1772 3097 
Q 1472 3097 1187 3025 
Q 903 2953 641 2809 
L 641 3341 
Q 956 3463 1253 3523 
Q 1550 3584 1831 3584 
Q 2591 3584 2966 3190 
Q 3341 2797 3341 1997 
z
" transform="scale(0.015625)"/>
      <path id="DejaVuSans-62" d="M 3116 1747 
Q 3116 2381 2855 2742 
Q 2594 3103 2138 3103 
Q 1681 3103 1420 2742 
Q 1159 2381 1159 1747 
Q 1159 1113 1420 752 
Q 1681 391 2138 391 
Q 2594 391 2855 752 
Q 3116 1113 3116 1747 
z
M 1159 2969 
Q 1341 3281 1617 3432 
Q 1894 3584 2278 3584 
Q 2916 3584 3314 3078 
Q 3713 2572 3713 1747 
Q 3713 922 3314 415 
Q 2916 -91 2278 -91 
Q 1894 -91 1617 61 
Q 1341 213 1159 525 
L 1159 0 
L 581 0 
L 581 4863 
L 1159 4863 
L 1159 2969 
z
" transform="scale(0.015625)"/>
      <path id="DejaVuSans-69" d="M 603 3500 
L 1178 3500 
L 1178 0 
L 603 0 
L 603 3500 
z
M 603 4863 
L 1178 4863 
L 1178 4134 
L 603 4134 
L 603 4863 
z
" transform="scale(0.015625)"/>
      <path id="DejaVuSans-6c" d="M 603 4863 
L 1178 4863 
L 1178 0 
L 603 0 
L 603 4863 
z
" transform="scale(0.015625)"/>
      <path id="DejaVuSans-7a" d="M 353 3500 
L 3084 3500 
L 3084 2975 
L 922 459 
L 3084 459 
L 3084 0 
L 275 0 
L 275 525 
L 2438 3041 
L 353 3041 
L 353 3500 
z
" transform="scale(0.015625)"/>
      <path id="DejaVuSans-65" d="M 3597 1894 
L 3597 1613 
L 953 1613 
Q 991 1019 1311 708 
Q 1631 397 2203 397 
Q 2534 397 2845 478 
Q 3156 559 3463 722 
L 3463 178 
Q 3153 47 2828 -22 
Q 2503 -91 2169 -91 
Q 1331 -91 842 396 
Q 353 884 353 1716 
Q 353 2575 817 3079 
Q 1281 3584 2069 3584 
Q 2775 3584 3186 3129 
Q 3597 2675 3597 1894 
z
M 3022 2063 
Q 3016 2534 2758 2815 
Q 2500 3097 2075 3097 
Q 1594 3097 1305 2825 
Q 1016 2553 972 2059 
L 3022 2063 
z
" transform="scale(0.015625)"/>
      <path id="DejaVuSans-72" d="M 2631 2963 
Q 2534 3019 2420 3045 
Q 2306 3072 2169 3072 
Q 1681 3072 1420 2755 
Q 1159 2438 1159 1844 
L 1159 0 
L 581 0 
L 581 3500 
L 1159 3500 
L 1159 2956 
Q 1341 3275 1631 3429 
Q 1922 3584 2338 3584 
Q 2397 3584 2469 3576 
Q 2541 3569 2628 3553 
L 2631 2963 
z
" transform="scale(0.015625)"/>
     </defs>
     <use xlink:href="#DejaVuSans-73"/>
     <use xlink:href="#DejaVuSans-74" transform="translate(52.099609 0)"/>
     <use xlink:href="#DejaVuSans-61" transform="translate(91.308594 0)"/>
     <use xlink:href="#DejaVuSans-62" transform="translate(152.587891 0)"/>
     <use xlink:href="#DejaVuSans-69" transform="translate(216.064453 0)"/>
     <use xlink:href="#DejaVuSans-6c" transform="translate(243.847656 0)"/>
     <use xlink:href="#DejaVuSans-69" transform="translate(271.630859 0)"/>
     <use xlink:href="#DejaVuSans-7a" transform="translate(299.414062 0)"/>
     <use xlink:href="#DejaVuSans-65" transform="translate(351.904297 0)"/>
     <use xlink:href="#DejaVuSans-72" transform="translate(413.427734 0)"/>
    </g>
   </g>
   <g id="patch_9">
    <path d="M 114.496198 117.612 
Q 114.863283 117.612 113.888727 117.612 
" style="fill: none; stroke: #374151; stroke-width: 1.2; stroke-linecap: round"/>
    <path d="M 109.888727 115.612 
L 113.888727 117.612 
L 109.888727 119.612 
" style="fill: none; stroke: #374151; stroke-width: 1.2; stroke-linecap: round"/>
   </g>
   <g id="text_2">
    <!-- hypercharge -->
    <g style="fill: #111827" transform="translate(121.980621 114.772469) scale(0.1 -0.1)">
     <defs>
      <path id="DejaVuSans-68" d="M 3513 2113 
L 3513 0 
L 2938 0 
L 2938 2094 
Q 2938 2591 2744 2837 
Q 2550 3084 2163 3084 
Q 1697 3084 1428 2787 
Q 1159 2491 1159 1978 
L 1159 0 
L 581 0 
L 581 4863 
L 1159 4863 
L 1159 2956 
Q 1366 3272 1645 3428 
Q 1925 3584 2291 3584 
Q 2894 3584 3203 3211 
Q 3513 2838 3513 2113 
z
" transform="scale(0.015625)"/>
      <path id="DejaVuSans-79" d="M 2059 -325 
Q 1816 -950 1584 -1140 
Q 1353 -1331 966 -1331 
L 506 -1331 
L 506 -850 
L 844 -850 
Q 1081 -850 1212 -737 
Q 1344 -625 1503 -206 
L 1606 56 
L 191 3500 
L 800 3500 
L 1894 763 
L 2988 3500 
L 3597 3500 
L 2059 -325 
z
" transform="scale(0.015625)"/>
      <path id="DejaVuSans-70" d="M 1159 525 
L 1159 -1331 
L 581 -1331 
L 581 3500 
L 1159 3500 
L 1159 2969 
Q 1341 3281 1617 3432 
Q 1894 3584 2278 3584 
Q 2916 3584 3314 3078 
Q 3713 2572 3713 1747 
Q 3713 922 3314 415 
Q 2916 -91 2278 -91 
Q 1894 -91 1617 61 
Q 1341 213 1159 525 
z
M 3116 1747 
Q 3116 2381 2855 2742 
Q 2594 3103 2138 3103 
Q 1681 3103 1420 2742 
Q 1159 2381 1159 1747 
Q 1159 1113 1420 752 
Q 1681 391 2138 391 
Q 2594 391 2855 752 
Q 3116 1113 3116 1747 
z
" transform="scale(0.015625)"/>
      <path id="DejaVuSans-63" d="M 3122 3366 
L 3122 2828 
Q 2878 2963 2633 3030 
Q 2388 3097 2138 3097 
Q 1578 3097 1268 2742 
Q 959 2388 959 1747 
Q 959 1106 1268 751 
Q 1578 397 2138 397 
Q 2388 397 2633 464 
Q 2878 531 3122 666 
L 3122 134 
Q 2881 22 2623 -34 
Q 2366 -91 2075 -91 
Q 1284 -91 818 406 
Q 353 903 353 1747 
Q 353 2603 823 3093 
Q 1294 3584 2113 3584 
Q 2378 3584 2631 3529 
Q 2884 3475 3122 3366 
z
" transform="scale(0.015625)"/>
      <path id="DejaVuSans-67" d="M 2906 1791 
Q 2906 2416 2648 2759 
Q 2391 3103 1925 3103 
Q 1463 3103 1205 2759 
Q 947 2416 947 1791 
Q 947 1169 1205 825 
Q 1463 481 1925 481 
Q 2391 481 2648 825 
Q 2906 1169 2906 1791 
z
M 3481 434 
Q 3481 -459 3084 -895 
Q 2688 -1331 1869 -1331 
Q 1566 -1331 1297 -1286 
Q 1028 -1241 775 -1147 
L 775 -588 
Q 1028 -725 1275 -790 
Q 1522 -856 1778 -856 
Q 2344 -856 2625 -561 
Q 2906 -266 2906 331 
L 2906 616 
Q 2728 306 2450 153 
Q 2172 0 1784 0 
Q 1141 0 747 490 
Q 353 981 353 1791 
Q 353 2603 747 3093 
Q 1141 3584 1784 3584 
Q 2172 3584 2450 3431 
Q 2728 3278 2906 2969 
L 2906 3500 
L 3481 3500 
L 3481 434 
z
" transform="scale(0.015625)"/>
     </defs>
     <use xlink:href="#DejaVuSans-68"/>
     <use xlink:href="#DejaVuSans-79" transform="translate(63.378906 0)"/>
     <use xlink:href="#DejaVuSans-70" transform="translate(122.558594 0)"/>
     <use xlink:href="#DejaVuSans-65" transform="translate(186.035156 0)"/>
     <use xlink:href="#DejaVuSans-72" transform="translate(247.558594 0)"/>
     <use xlink:href="#DejaVuSans-63" transform="translate(286.421875 0)"/>
     <use xlink:href="#DejaVuSans-68" transform="translate(341.402344 0)"/>
     <use xlink:href="#DejaVuSans-61" transform="translate(404.78125 0)"/>
     <use xlink:href="#DejaVuSans-72" transform="translate(466.060547 0)"/>
     <use xlink:href="#DejaVuSans-67" transform="translate(505.423828 0)"/>
     <use xlink:href="#DejaVuSans-65" transform="translate(568.900391 0)"/>
    </g>
    <!-- line -->
    <g style="fill: #111827" transform="translate(144.479839 125.970281) scale(0.1 -0.1)">
     <defs>
      <path id="DejaVuSans-6e" d="M 3513 2113 
L 3513 0 
L 2938 0 
L 2938 2094 
Q 2938 2591 2744 2837 
Q 2550 3084 2163 3084 
Q 1697 3084 1428 2787 
Q 1159 2491 1159 1978 
L 1159 0 
L 581 0 
L 581 3500 
L 1159 3500 
L 1159 2956 
Q 1366 3272 1645 3428 
Q 1925 3584 2291 3584 
Q 2894 3584 3203 3211 
Q 3513 2838 3513 2113 
z
" transform="scale(0.015625)"/>
     </defs>
     <use xlink:href="#DejaVuSans-6c"/>
     <use xlink:href="#DejaVuSans-69" transform="translate(27.783203 0)"/>
     <use xlink:href="#DejaVuSans-6e" transform="translate(55.566406 0)"/>
     <use xlink:href="#DejaVuSans-65" transform="translate(118.945312 0)"/>
    </g>
   </g>
   <g id="patch_10">
    <path d="M 193.775796 117.612 
Q 194.142881 117.612 193.168325 117.612 
" style="fill: none; stroke: #374151; stroke-width: 1.2; stroke-linecap: round"/>
    <path d="M 189.168325 115.612 
L 193.168325 117.612 
L 189.168325 119.612 
" style="fill: none; stroke: #374151; stroke-width: 1.2; stroke-linecap: round"/>
   </g>
   <g id="text_3">
    <!-- unoriented -->
    <g style="fill: #111827" transform="translate(205.485219 114.772469) scale(0.1 -0.1)">
     <defs>
      <path id="DejaVuSans-75" d="M 544 1381 
L 544 3500 
L 1119 3500 
L 1119 1403 
Q 1119 906 1312 657 
Q 1506 409 1894 409 
Q 2359 409 2629 706 
Q 2900 1003 2900 1516 
L 2900 3500 
L 3475 3500 
L 3475 0 
L 2900 0 
L 2900 538 
Q 2691 219 2414 64 
Q 2138 -91 1772 -91 
Q 1169 -91 856 284 
Q 544 659 544 1381 
z
M 1991 3584 
L 1991 3584 
z
" transform="scale(0.015625)"/>
      <path id="DejaVuSans-6f" d="M 1959 3097 
Q 1497 3097 1228 2736 
Q 959 2375 959 1747 
Q 959 1119 1226 758 
Q 1494 397 1959 397 
Q 2419 397 2687 759 
Q 2956 1122 2956 1747 
Q 2956 2369 2687 2733 
Q 2419 3097 1959 3097 
z
M 1959 3584 
Q 2709 3584 3137 3096 
Q 3566 2609 3566 1747 
Q 3566 888 3137 398 
Q 2709 -91 1959 -91 
Q 1206 -91 779 398 
Q 353 888 353 1747 
Q 353 2609 779 3096 
Q 1206 3584 1959 3584 
z
" transform="scale(0.015625)"/>
      <path id="DejaVuSans-64" d="M 2906 2969 
L 2906 4863 
L 3481 4863 
L 3481 0 
L 2906 0 
L 2906 525 
Q 2725 213 2448 61 
Q 2172 -91 1784 -91 
Q 1150 -91 751 415 
Q 353 922 353 1747 
Q 353 2572 751 3078 
Q 1150 3584 1784 3584 
Q 2172 3584 2448 3432 
Q 2725 3281 2906 2969 
z
M 947 1747 
Q 947 1113 1208 752 
Q 1469 391 1925 391 
Q 2381 391 2643 752 
Q 2906 1113 2906 1747 
Q 2906 2381 2643 2742 
Q 2381 3103 1925 3103 
Q 1469 3103 1208 2742 
Q 947 2381 947 1747 
z
" transform="scale(0.015625)"/>
     </defs>
     <use xlink:href="#DejaVuSans-75"/>
     <use xlink:href="#DejaVuSans-6e" transform="translate(63.378906 0)"/>
     <use xlink:href="#DejaVuSans-6f" transform="translate(126.757812 0)"/>
     <use xlink:href="#DejaVuSans-72" transform="translate(187.939453 0)"/>
     <use xlink:href="#DejaVuSans-69" transform="translate(229.052734 0)"/>
     <use xlink:href="#DejaVuSans-65" transform="translate(256.835938 0)"/>
     <use xlink:href="#DejaVuSans-6e" transform="translate(318.359375 0)"/>
     <use xlink:href="#DejaVuSans-74" transform="translate(381.738281 0)"/>
     <use xlink:href="#DejaVuSans-65" transform="translate(420.947266 0)"/>
     <use xlink:href="#DejaVuSans-64" transform="translate(482.470703 0)"/>
    </g>
    <!-- quotient -->
    <g style="fill: #111827" transform="translate(211.825844 125.970281) scale(0.1 -0.1)">
     <defs>
      <path id="DejaVuSans-71" d="M 947 1747 
Q 947 1113 1208 752 
Q 1469 391 1925 391 
Q 2381 391 2643 752 
Q 2906 1113 2906 1747 
Q 2906 2381 2643 2742 
Q 2381 3103 1925 3103 
Q 1469 3103 1208 2742 
Q 947 2381 947 1747 
z
M 2906 525 
Q 2725 213 2448 61 
Q 2172 -91 1784 -91 
Q 1150 -91 751 415 
Q 353 922 353 1747 
Q 353 2572 751 3078 
Q 1150 3584 1784 3584 
Q 2172 3584 2448 3432 
Q 2725 3281 2906 2969 
L 2906 3500 
L 3481 3500 
L 3481 -1331 
L 2906 -1331 
L 2906 525 
z
" transform="scale(0.015625)"/>
     </defs>
     <use xlink:href="#DejaVuSans-71"/>
     <use xlink:href="#DejaVuSans-75" transform="translate(63.476562 0)"/>
     <use xlink:href="#DejaVuSans-6f" transform="translate(126.855469 0)"/>
     <use xlink:href="#DejaVuSans-74" transform="translate(188.037109 0)"/>
     <use xlink:href="#DejaVuSans-69" transform="translate(227.246094 0)"/>
     <use xlink:href="#DejaVuSans-65" transform="translate(255.029297 0)"/>
     <use xlink:href="#DejaVuSans-6e" transform="translate(316.552734 0)"/>
     <use xlink:href="#DejaVuSans-74" transform="translate(379.931641 0)"/>
    </g>
   </g>
   <g id="patch_11">
    <path d="M 273.055395 117.612 
Q 273.422479 117.612 272.447923 117.612 
" style="fill: none; stroke: #374151; stroke-width: 1.2; stroke-linecap: round"/>
    <path d="M 268.447923 115.612 
L 272.447923 117.612 
L 268.447923 119.612 
" style="fill: none; stroke: #374151; stroke-width: 1.2; stroke-linecap: round"/>
   </g>
   <g id="text_4">
    <!-- minimal -->
    <g style="fill: #111827" transform="translate(291.921848 114.772469) scale(0.1 -0.1)">
     <defs>
      <path id="DejaVuSans-6d" d="M 3328 2828 
Q 3544 3216 3844 3400 
Q 4144 3584 4550 3584 
Q 5097 3584 5394 3201 
Q 5691 2819 5691 2113 
L 5691 0 
L 5113 0 
L 5113 2094 
Q 5113 2597 4934 2840 
Q 4756 3084 4391 3084 
Q 3944 3084 3684 2787 
Q 3425 2491 3425 1978 
L 3425 0 
L 2847 0 
L 2847 2094 
Q 2847 2600 2669 2842 
Q 2491 3084 2119 3084 
Q 1678 3084 1418 2786 
Q 1159 2488 1159 1978 
L 1159 0 
L 581 0 
L 581 3500 
L 1159 3500 
L 1159 2956 
Q 1356 3278 1631 3431 
Q 1906 3584 2284 3584 
Q 2666 3584 2933 3390 
Q 3200 3197 3328 2828 
z
" transform="scale(0.015625)"/>
     </defs>
     <use xlink:href="#DejaVuSans-6d"/>
     <use xlink:href="#DejaVuSans-69" transform="translate(97.412109 0)"/>
     <use xlink:href="#DejaVuSans-6e" transform="translate(125.195312 0)"/>
     <use xlink:href="#DejaVuSans-69" transform="translate(188.574219 0)"/>
     <use xlink:href="#DejaVuSans-6d" transform="translate(216.357422 0)"/>
     <use xlink:href="#DejaVuSans-61" transform="translate(313.769531 0)"/>
     <use xlink:href="#DejaVuSans-6c" transform="translate(375.048828 0)"/>
    </g>
    <!-- BPS wall -->
    <g style="fill: #111827" transform="translate(290.92263 125.970281) scale(0.1 -0.1)">
     <defs>
      <path id="DejaVuSans-42" d="M 1259 2228 
L 1259 519 
L 2272 519 
Q 2781 519 3026 730 
Q 3272 941 3272 1375 
Q 3272 1813 3026 2020 
Q 2781 2228 2272 2228 
L 1259 2228 
z
M 1259 4147 
L 1259 2741 
L 2194 2741 
Q 2656 2741 2882 2914 
Q 3109 3088 3109 3444 
Q 3109 3797 2882 3972 
Q 2656 4147 2194 4147 
L 1259 4147 
z
M 628 4666 
L 2241 4666 
Q 2963 4666 3353 4366 
Q 3744 4066 3744 3513 
Q 3744 3084 3544 2831 
Q 3344 2578 2956 2516 
Q 3422 2416 3680 2098 
Q 3938 1781 3938 1306 
Q 3938 681 3513 340 
Q 3088 0 2303 0 
L 628 0 
L 628 4666 
z
" transform="scale(0.015625)"/>
      <path id="DejaVuSans-50" d="M 1259 4147 
L 1259 2394 
L 2053 2394 
Q 2494 2394 2734 2622 
Q 2975 2850 2975 3272 
Q 2975 3691 2734 3919 
Q 2494 4147 2053 4147 
L 1259 4147 
z
M 628 4666 
L 2053 4666 
Q 2838 4666 3239 4311 
Q 3641 3956 3641 3272 
Q 3641 2581 3239 2228 
Q 2838 1875 2053 1875 
L 1259 1875 
L 1259 0 
L 628 0 
L 628 4666 
z
" transform="scale(0.015625)"/>
      <path id="DejaVuSans-53" d="M 3425 4513 
L 3425 3897 
Q 3066 4069 2747 4153 
Q 2428 4238 2131 4238 
Q 1616 4238 1336 4038 
Q 1056 3838 1056 3469 
Q 1056 3159 1242 3001 
Q 1428 2844 1947 2747 
L 2328 2669 
Q 3034 2534 3370 2195 
Q 3706 1856 3706 1288 
Q 3706 609 3251 259 
Q 2797 -91 1919 -91 
Q 1588 -91 1214 -16 
Q 841 59 441 206 
L 441 856 
Q 825 641 1194 531 
Q 1563 422 1919 422 
Q 2459 422 2753 634 
Q 3047 847 3047 1241 
Q 3047 1584 2836 1778 
Q 2625 1972 2144 2069 
L 1759 2144 
Q 1053 2284 737 2584 
Q 422 2884 422 3419 
Q 422 4038 858 4394 
Q 1294 4750 2059 4750 
Q 2388 4750 2728 4690 
Q 3069 4631 3425 4513 
z
" transform="scale(0.015625)"/>
      <path id="DejaVuSans-20" transform="scale(0.015625)"/>
      <path id="DejaVuSans-77" d="M 269 3500 
L 844 3500 
L 1563 769 
L 2278 3500 
L 2956 3500 
L 3675 769 
L 4391 3500 
L 4966 3500 
L 4050 0 
L 3372 0 
L 2619 2869 
L 1863 0 
L 1184 0 
L 269 3500 
z
" transform="scale(0.015625)"/>
     </defs>
     <use xlink:href="#DejaVuSans-42"/>
     <use xlink:href="#DejaVuSans-50" transform="translate(68.603516 0)"/>
     <use xlink:href="#DejaVuSans-53" transform="translate(128.90625 0)"/>
     <use xlink:href="#DejaVuSans-20" transform="translate(192.382812 0)"/>
     <use xlink:href="#DejaVuSans-77" transform="translate(224.169922 0)"/>
     <use xlink:href="#DejaVuSans-61" transform="translate(305.957031 0)"/>
     <use xlink:href="#DejaVuSans-6c" transform="translate(367.236328 0)"/>
     <use xlink:href="#DejaVuSans-6c" transform="translate(395.019531 0)"/>
    </g>
   </g>
   <g id="patch_12">
    <path d="M 352.334993 117.612 
Q 352.702077 117.612 351.727521 117.612 
" style="fill: none; stroke: #374151; stroke-width: 1.2; stroke-linecap: round"/>
    <path d="M 347.727521 115.612 
L 351.727521 117.612 
L 347.727521 119.612 
" style="fill: none; stroke: #374151; stroke-width: 1.2; stroke-linecap: round"/>
   </g>
   <g id="text_5">
    <!-- sech -->
    <g style="fill: #111827" transform="translate(379.742853 114.772469) scale(0.1 -0.1)">
     <use xlink:href="#DejaVuSans-73"/>
     <use xlink:href="#DejaVuSans-65" transform="translate(52.099609 0)"/>
     <use xlink:href="#DejaVuSans-63" transform="translate(113.623047 0)"/>
     <use xlink:href="#DejaVuSans-68" transform="translate(168.603516 0)"/>
    </g>
    <!-- zero mode -->
    <g style="fill: #111827" transform="translate(364.869415 125.970281) scale(0.1 -0.1)">
     <use xlink:href="#DejaVuSans-7a"/>
     <use xlink:href="#DejaVuSans-65" transform="translate(52.490234 0)"/>
     <use xlink:href="#DejaVuSans-72" transform="translate(114.013672 0)"/>
     <use xlink:href="#DejaVuSans-6f" transform="translate(152.876953 0)"/>
     <use xlink:href="#DejaVuSans-20" transform="translate(214.058594 0)"/>
     <use xlink:href="#DejaVuSans-6d" transform="translate(245.845703 0)"/>
     <use xlink:href="#DejaVuSans-6f" transform="translate(343.257812 0)"/>
     <use xlink:href="#DejaVuSans-64" transform="translate(404.439453 0)"/>
     <use xlink:href="#DejaVuSans-65" transform="translate(467.916016 0)"/>
    </g>
   </g>
   <g id="patch_13">
    <path d="M 431.614591 117.612 
Q 431.981676 117.612 431.00712 117.612 
" style="fill: none; stroke: #374151; stroke-width: 1.2; stroke-linecap: round"/>
    <path d="M 427.00712 115.612 
L 431.00712 117.612 
L 427.00712 119.612 
" style="fill: none; stroke: #374151; stroke-width: 1.2; stroke-linecap: round"/>
   </g>
   <g id="text_6">
    <!-- quartic -->
    <g style="fill: #111827" transform="translate(453.060732 114.772469) scale(0.1 -0.1)">
     <use xlink:href="#DejaVuSans-71"/>
     <use xlink:href="#DejaVuSans-75" transform="translate(63.476562 0)"/>
     <use xlink:href="#DejaVuSans-61" transform="translate(126.855469 0)"/>
     <use xlink:href="#DejaVuSans-72" transform="translate(188.134766 0)"/>
     <use xlink:href="#DejaVuSans-74" transform="translate(229.248047 0)"/>
     <use xlink:href="#DejaVuSans-69" transform="translate(268.457031 0)"/>
     <use xlink:href="#DejaVuSans-63" transform="translate(296.240234 0)"/>
    </g>
    <!-- overlap -->
    <g style="fill: #111827" transform="translate(451.843545 125.970281) scale(0.1 -0.1)">
     <defs>
      <path id="DejaVuSans-76" d="M 191 3500 
L 800 3500 
L 1894 563 
L 2988 3500 
L 3597 3500 
L 2284 0 
L 1503 0 
L 191 3500 
z
" transform="scale(0.015625)"/>
     </defs>
     <use xlink:href="#DejaVuSans-6f"/>
     <use xlink:href="#DejaVuSans-76" transform="translate(61.181641 0)"/>
     <use xlink:href="#DejaVuSans-65" transform="translate(120.361328 0)"/>
     <use xlink:href="#DejaVuSans-72" transform="translate(181.884766 0)"/>
     <use xlink:href="#DejaVuSans-6c" transform="translate(222.998047 0)"/>
     <use xlink:href="#DejaVuSans-61" transform="translate(250.78125 0)"/>
     <use xlink:href="#DejaVuSans-70" transform="translate(312.060547 0)"/>
    </g>
   </g>
   <g id="patch_14">
    <path d="M 510.894189 117.612 
Q 511.261274 117.612 510.286718 117.612 
" style="fill: none; stroke: #374151; stroke-width: 1.2; stroke-linecap: round"/>
    <path d="M 506.286718 115.612 
L 510.286718 117.612 
L 506.286718 119.612 
" style="fill: none; stroke: #374151; stroke-width: 1.2; stroke-linecap: round"/>
   </g>
   <g id="text_7">
    <!-- proof -->
    <g style="fill: #111827" transform="translate(536.905174 114.772469) scale(0.1 -0.1)">
     <defs>
      <path id="DejaVuSans-66" d="M 2375 4863 
L 2375 4384 
L 1825 4384 
Q 1516 4384 1395 4259 
Q 1275 4134 1275 3809 
L 1275 3500 
L 2222 3500 
L 2222 3053 
L 1275 3053 
L 1275 0 
L 697 0 
L 697 3053 
L 147 3053 
L 147 3500 
L 697 3500 
L 697 3744 
Q 697 4328 969 4595 
Q 1241 4863 1831 4863 
L 2375 4863 
z
" transform="scale(0.015625)"/>
     </defs>
     <use xlink:href="#DejaVuSans-70"/>
     <use xlink:href="#DejaVuSans-72" transform="translate(63.476562 0)"/>
     <use xlink:href="#DejaVuSans-6f" transform="translate(102.339844 0)"/>
     <use xlink:href="#DejaVuSans-6f" transform="translate(163.521484 0)"/>
     <use xlink:href="#DejaVuSans-66" transform="translate(224.703125 0)"/>
    </g>
    <!-- gates -->
    <g style="fill: #111827" transform="translate(536.021581 125.970281) scale(0.1 -0.1)">
     <use xlink:href="#DejaVuSans-67"/>
     <use xlink:href="#DejaVuSans-61" transform="translate(63.476562 0)"/>
     <use xlink:href="#DejaVuSans-74" transform="translate(124.755859 0)"/>
     <use xlink:href="#DejaVuSans-65" transform="translate(163.964844 0)"/>
     <use xlink:href="#DejaVuSans-73" transform="translate(225.488281 0)"/>
    </g>
   </g>
   <g id="text_8">
    <!-- conditional route: derived pieces feed theorem-candidate gates before physical claims -->
    <g style="fill: #374151" transform="translate(67.036519 248.855375) scale(0.1 -0.1)">
     <defs>
      <path id="DejaVuSans-3a" d="M 750 794 
L 1409 794 
L 1409 0 
L 750 0 
L 750 794 
z
M 750 3309 
L 1409 3309 
L 1409 2516 
L 750 2516 
L 750 3309 
z
" transform="scale(0.015625)"/>
      <path id="DejaVuSans-2d" d="M 313 2009 
L 1997 2009 
L 1997 1497 
L 313 1497 
L 313 2009 
z
" transform="scale(0.015625)"/>
     </defs>
     <use xlink:href="#DejaVuSans-63"/>
     <use xlink:href="#DejaVuSans-6f" transform="translate(54.980469 0)"/>
     <use xlink:href="#DejaVuSans-6e" transform="translate(116.162109 0)"/>
     <use xlink:href="#DejaVuSans-64" transform="translate(179.541016 0)"/>
     <use xlink:href="#DejaVuSans-69" transform="translate(243.017578 0)"/>
     <use xlink:href="#DejaVuSans-74" transform="translate(270.800781 0)"/>
     <use xlink:href="#DejaVuSans-69" transform="translate(310.009766 0)"/>
     <use xlink:href="#DejaVuSans-6f" transform="translate(337.792969 0)"/>
     <use xlink:href="#DejaVuSans-6e" transform="translate(398.974609 0)"/>
     <use xlink:href="#DejaVuSans-61" transform="translate(462.353516 0)"/>
     <use xlink:href="#DejaVuSans-6c" transform="translate(523.632812 0)"/>
     <use xlink:href="#DejaVuSans-20" transform="translate(551.416016 0)"/>
     <use xlink:href="#DejaVuSans-72" transform="translate(583.203125 0)"/>
     <use xlink:href="#DejaVuSans-6f" transform="translate(622.066406 0)"/>
     <use xlink:href="#DejaVuSans-75" transform="translate(683.248047 0)"/>
     <use xlink:href="#DejaVuSans-74" transform="translate(746.626953 0)"/>
     <use xlink:href="#DejaVuSans-65" transform="translate(785.835938 0)"/>
     <use xlink:href="#DejaVuSans-3a" transform="translate(847.359375 0)"/>
     <use xlink:href="#DejaVuSans-20" transform="translate(881.050781 0)"/>
     <use xlink:href="#DejaVuSans-64" transform="translate(912.837891 0)"/>
     <use xlink:href="#DejaVuSans-65" transform="translate(976.314453 0)"/>
     <use xlink:href="#DejaVuSans-72" transform="translate(1037.837891 0)"/>
     <use xlink:href="#DejaVuSans-69" transform="translate(1078.951172 0)"/>
     <use xlink:href="#DejaVuSans-76" transform="translate(1106.734375 0)"/>
     <use xlink:href="#DejaVuSans-65" transform="translate(1165.914062 0)"/>
     <use xlink:href="#DejaVuSans-64" transform="translate(1227.4375 0)"/>
     <use xlink:href="#DejaVuSans-20" transform="translate(1290.914062 0)"/>
     <use xlink:href="#DejaVuSans-70" transform="translate(1322.701172 0)"/>
     <use xlink:href="#DejaVuSans-69" transform="translate(1386.177734 0)"/>
     <use xlink:href="#DejaVuSans-65" transform="translate(1413.960938 0)"/>
     <use xlink:href="#DejaVuSans-63" transform="translate(1475.484375 0)"/>
     <use xlink:href="#DejaVuSans-65" transform="translate(1530.464844 0)"/>
     <use xlink:href="#DejaVuSans-73" transform="translate(1591.988281 0)"/>
     <use xlink:href="#DejaVuSans-20" transform="translate(1644.087891 0)"/>
     <use xlink:href="#DejaVuSans-66" transform="translate(1675.875 0)"/>
     <use xlink:href="#DejaVuSans-65" transform="translate(1711.080078 0)"/>
     <use xlink:href="#DejaVuSans-65" transform="translate(1772.603516 0)"/>
     <use xlink:href="#DejaVuSans-64" transform="translate(1834.126953 0)"/>
     <use xlink:href="#DejaVuSans-20" transform="translate(1897.603516 0)"/>
     <use xlink:href="#DejaVuSans-74" transform="translate(1929.390625 0)"/>
     <use xlink:href="#DejaVuSans-68" transform="translate(1968.599609 0)"/>
     <use xlink:href="#DejaVuSans-65" transform="translate(2031.978516 0)"/>
     <use xlink:href="#DejaVuSans-6f" transform="translate(2093.501953 0)"/>
     <use xlink:href="#DejaVuSans-72" transform="translate(2154.683594 0)"/>
     <use xlink:href="#DejaVuSans-65" transform="translate(2193.546875 0)"/>
     <use xlink:href="#DejaVuSans-6d" transform="translate(2255.070312 0)"/>
     <use xlink:href="#DejaVuSans-2d" transform="translate(2352.482422 0)"/>
     <use xlink:href="#DejaVuSans-63" transform="translate(2388.566406 0)"/>
     <use xlink:href="#DejaVuSans-61" transform="translate(2443.546875 0)"/>
     <use xlink:href="#DejaVuSans-6e" transform="translate(2504.826172 0)"/>
     <use xlink:href="#DejaVuSans-64" transform="translate(2568.205078 0)"/>
     <use xlink:href="#DejaVuSans-69" transform="translate(2631.681641 0)"/>
     <use xlink:href="#DejaVuSans-64" transform="translate(2659.464844 0)"/>
     <use xlink:href="#DejaVuSans-61" transform="translate(2722.941406 0)"/>
     <use xlink:href="#DejaVuSans-74" transform="translate(2784.220703 0)"/>
     <use xlink:href="#DejaVuSans-65" transform="translate(2823.429688 0)"/>
     <use xlink:href="#DejaVuSans-20" transform="translate(2884.953125 0)"/>
     <use xlink:href="#DejaVuSans-67" transform="translate(2916.740234 0)"/>
     <use xlink:href="#DejaVuSans-61" transform="translate(2980.216797 0)"/>
     <use xlink:href="#DejaVuSans-74" transform="translate(3041.496094 0)"/>
     <use xlink:href="#DejaVuSans-65" transform="translate(3080.705078 0)"/>
     <use xlink:href="#DejaVuSans-73" transform="translate(3142.228516 0)"/>
     <use xlink:href="#DejaVuSans-20" transform="translate(3194.328125 0)"/>
     <use xlink:href="#DejaVuSans-62" transform="translate(3226.115234 0)"/>
     <use xlink:href="#DejaVuSans-65" transform="translate(3289.591797 0)"/>
     <use xlink:href="#DejaVuSans-66" transform="translate(3351.115234 0)"/>
     <use xlink:href="#DejaVuSans-6f" transform="translate(3386.320312 0)"/>
     <use xlink:href="#DejaVuSans-72" transform="translate(3447.501953 0)"/>
     <use xlink:href="#DejaVuSans-65" transform="translate(3486.365234 0)"/>
     <use xlink:href="#DejaVuSans-20" transform="translate(3547.888672 0)"/>
     <use xlink:href="#DejaVuSans-70" transform="translate(3579.675781 0)"/>
     <use xlink:href="#DejaVuSans-68" transform="translate(3643.152344 0)"/>
     <use xlink:href="#DejaVuSans-79" transform="translate(3706.53125 0)"/>
     <use xlink:href="#DejaVuSans-73" transform="translate(3765.710938 0)"/>
     <use xlink:href="#DejaVuSans-69" transform="translate(3817.810547 0)"/>
     <use xlink:href="#DejaVuSans-63" transform="translate(3845.59375 0)"/>
     <use xlink:href="#DejaVuSans-61" transform="translate(3900.574219 0)"/>
     <use xlink:href="#DejaVuSans-6c" transform="translate(3961.853516 0)"/>
     <use xlink:href="#DejaVuSans-20" transform="translate(3989.636719 0)"/>
     <use xlink:href="#DejaVuSans-63" transform="translate(4021.423828 0)"/>
     <use xlink:href="#DejaVuSans-6c" transform="translate(4076.404297 0)"/>
     <use xlink:href="#DejaVuSans-61" transform="translate(4104.1875 0)"/>
     <use xlink:href="#DejaVuSans-69" transform="translate(4165.466797 0)"/>
     <use xlink:href="#DejaVuSans-6d" transform="translate(4193.25 0)"/>
     <use xlink:href="#DejaVuSans-73" transform="translate(4290.662109 0)"/>
    </g>
   </g>
  </g>
 </g>
 <defs>
  <clipPath id="p44bf4ccfc6">
   <rect x="10.8" y="10.8" width="546.75585" height="309.6"/>
  </clipPath>
 </defs>
</svg>
